<mxfile host="app.diagrams.net" modified="2024-02-12T14:26:36.604Z" agent="Mozilla/5.0 (Windows NT 10.0; Win64; x64) AppleWebKit/537.36 (KHTML, like Gecko) Chrome/121.0.0.0 Safari/537.36" etag="yjBSa-46dyzLAJV7AUmP" version="23.1.2" type="github">
  <diagram id="C5RBs43oDa-KdzZeNtuy" name="Page-1">
    <mxGraphModel dx="3827" dy="1591" grid="1" gridSize="10" guides="1" tooltips="1" connect="1" arrows="1" fold="1" page="1" pageScale="1" pageWidth="827" pageHeight="1169" math="0" shadow="0">
      <root>
        <mxCell id="WIyWlLk6GJQsqaUBKTNV-0" />
        <mxCell id="WIyWlLk6GJQsqaUBKTNV-1" parent="WIyWlLk6GJQsqaUBKTNV-0" />
        <mxCell id="YYXAiJddzXAb7S0VU3wy-10" value="" style="edgeStyle=orthogonalEdgeStyle;rounded=0;orthogonalLoop=1;jettySize=auto;html=1;labelBackgroundColor=none;strokeColor=#A8201A;fontColor=default;" parent="WIyWlLk6GJQsqaUBKTNV-1" source="YYXAiJddzXAb7S0VU3wy-3" edge="1">
          <mxGeometry relative="1" as="geometry">
            <mxPoint y="290" as="targetPoint" />
          </mxGeometry>
        </mxCell>
        <mxCell id="YYXAiJddzXAb7S0VU3wy-3" value="&lt;h1&gt;&lt;font style=&quot;font-size: 25px;&quot;&gt;Start&lt;/font&gt;&lt;/h1&gt;" style="ellipse;whiteSpace=wrap;html=1;labelBackgroundColor=none;fillColor=#FAE5C7;strokeColor=#0F8B8D;fontColor=#143642;" parent="WIyWlLk6GJQsqaUBKTNV-1" vertex="1">
          <mxGeometry x="-60" y="151" width="120" height="80" as="geometry" />
        </mxCell>
        <mxCell id="YYXAiJddzXAb7S0VU3wy-4" value="Draw a flowchart&amp;nbsp;&lt;b style=&quot;-webkit-tap-highlight-color: transparent; color: rgba(0, 0, 0, 0.87); font-family: Roboto, Helvetica, Arial, sans-serif; font-size: 25px; text-align: left;&quot;&gt;to&amp;nbsp;find the minimum number from the given 3 numbers&amp;nbsp;&lt;/b&gt;" style="text;html=1;align=center;verticalAlign=middle;resizable=0;points=[];autosize=1;strokeColor=none;fillColor=none;fontSize=25;labelBackgroundColor=none;fontColor=#143642;" parent="WIyWlLk6GJQsqaUBKTNV-1" vertex="1">
          <mxGeometry x="-385" y="3" width="870" height="40" as="geometry" />
        </mxCell>
        <mxCell id="YYXAiJddzXAb7S0VU3wy-18" value="" style="edgeStyle=orthogonalEdgeStyle;rounded=0;orthogonalLoop=1;jettySize=auto;html=1;labelBackgroundColor=none;strokeColor=#A8201A;fontColor=default;entryX=0.5;entryY=0;entryDx=0;entryDy=0;" parent="WIyWlLk6GJQsqaUBKTNV-1" source="YYXAiJddzXAb7S0VU3wy-15" target="YYXAiJddzXAb7S0VU3wy-21" edge="1">
          <mxGeometry relative="1" as="geometry">
            <mxPoint y="720" as="targetPoint" />
          </mxGeometry>
        </mxCell>
        <mxCell id="YYXAiJddzXAb7S0VU3wy-15" value="&lt;font style=&quot;font-size: 18px;&quot;&gt;Enter the value for FirstNumber&lt;br&gt;Enter the value for SecondNumber&lt;br&gt;Enter the value for ThirdNumber&lt;/font&gt;" style="shape=parallelogram;perimeter=parallelogramPerimeter;whiteSpace=wrap;html=1;fixedSize=1;labelBackgroundColor=none;fillColor=#FAE5C7;strokeColor=#0F8B8D;fontColor=#143642;" parent="WIyWlLk6GJQsqaUBKTNV-1" vertex="1">
          <mxGeometry x="-150" y="290" width="300" height="150" as="geometry" />
        </mxCell>
        <mxCell id="5Srq73m_eUEjm9wVhy2n-0" style="edgeStyle=orthogonalEdgeStyle;rounded=0;orthogonalLoop=1;jettySize=auto;html=1;exitX=0;exitY=0.5;exitDx=0;exitDy=0;" edge="1" parent="WIyWlLk6GJQsqaUBKTNV-1" source="YYXAiJddzXAb7S0VU3wy-21">
          <mxGeometry relative="1" as="geometry">
            <mxPoint x="-530" y="1350" as="targetPoint" />
          </mxGeometry>
        </mxCell>
        <mxCell id="5Srq73m_eUEjm9wVhy2n-1" value="&lt;span style=&quot;font-size: 21px;&quot;&gt;No&lt;/span&gt;" style="edgeLabel;html=1;align=center;verticalAlign=middle;resizable=0;points=[];" vertex="1" connectable="0" parent="5Srq73m_eUEjm9wVhy2n-0">
          <mxGeometry x="-0.3886" y="1" relative="1" as="geometry">
            <mxPoint as="offset" />
          </mxGeometry>
        </mxCell>
        <mxCell id="5Srq73m_eUEjm9wVhy2n-2" style="edgeStyle=orthogonalEdgeStyle;rounded=0;orthogonalLoop=1;jettySize=auto;html=1;exitX=1;exitY=0.5;exitDx=0;exitDy=0;entryX=0.5;entryY=0;entryDx=0;entryDy=0;" edge="1" parent="WIyWlLk6GJQsqaUBKTNV-1" source="YYXAiJddzXAb7S0VU3wy-21" target="YYXAiJddzXAb7S0VU3wy-42">
          <mxGeometry relative="1" as="geometry" />
        </mxCell>
        <mxCell id="5Srq73m_eUEjm9wVhy2n-3" value="&lt;span style=&quot;font-size: 24px;&quot;&gt;Yes&lt;/span&gt;" style="edgeLabel;html=1;align=center;verticalAlign=middle;resizable=0;points=[];" vertex="1" connectable="0" parent="5Srq73m_eUEjm9wVhy2n-2">
          <mxGeometry x="-0.4371" y="2" relative="1" as="geometry">
            <mxPoint as="offset" />
          </mxGeometry>
        </mxCell>
        <mxCell id="YYXAiJddzXAb7S0VU3wy-21" value="&lt;font style=&quot;font-size: 14px;&quot;&gt;If FirstNumber &amp;lt;= SecondNumber&lt;/font&gt;" style="rhombus;whiteSpace=wrap;html=1;labelBackgroundColor=none;fillColor=#FAE5C7;strokeColor=#0F8B8D;fontColor=#143642;" parent="WIyWlLk6GJQsqaUBKTNV-1" vertex="1">
          <mxGeometry x="-120" y="900" width="240" height="230" as="geometry" />
        </mxCell>
        <mxCell id="5Srq73m_eUEjm9wVhy2n-5" style="edgeStyle=orthogonalEdgeStyle;rounded=0;orthogonalLoop=1;jettySize=auto;html=1;exitX=1;exitY=0.5;exitDx=0;exitDy=0;" edge="1" parent="WIyWlLk6GJQsqaUBKTNV-1" source="YYXAiJddzXAb7S0VU3wy-42" target="YYXAiJddzXAb7S0VU3wy-60">
          <mxGeometry relative="1" as="geometry" />
        </mxCell>
        <mxCell id="5Srq73m_eUEjm9wVhy2n-6" value="&lt;span style=&quot;font-size: 26px;&quot;&gt;Yes&lt;/span&gt;" style="edgeLabel;html=1;align=center;verticalAlign=middle;resizable=0;points=[];" vertex="1" connectable="0" parent="5Srq73m_eUEjm9wVhy2n-5">
          <mxGeometry x="-0.5045" y="4" relative="1" as="geometry">
            <mxPoint as="offset" />
          </mxGeometry>
        </mxCell>
        <mxCell id="5Srq73m_eUEjm9wVhy2n-7" style="edgeStyle=orthogonalEdgeStyle;rounded=0;orthogonalLoop=1;jettySize=auto;html=1;exitX=0;exitY=0.5;exitDx=0;exitDy=0;" edge="1" parent="WIyWlLk6GJQsqaUBKTNV-1" source="YYXAiJddzXAb7S0VU3wy-42" target="YYXAiJddzXAb7S0VU3wy-59">
          <mxGeometry relative="1" as="geometry" />
        </mxCell>
        <mxCell id="5Srq73m_eUEjm9wVhy2n-8" value="&lt;span style=&quot;font-size: 23px;&quot;&gt;No&lt;/span&gt;" style="edgeLabel;html=1;align=center;verticalAlign=middle;resizable=0;points=[];" vertex="1" connectable="0" parent="5Srq73m_eUEjm9wVhy2n-7">
          <mxGeometry x="-0.4268" y="2" relative="1" as="geometry">
            <mxPoint as="offset" />
          </mxGeometry>
        </mxCell>
        <mxCell id="YYXAiJddzXAb7S0VU3wy-42" value="&lt;font style=&quot;font-size: 16px;&quot;&gt;If FirstNumber &amp;lt;= ThreeNumber&lt;/font&gt;" style="rhombus;whiteSpace=wrap;html=1;labelBackgroundColor=none;fillColor=#FAE5C7;strokeColor=#0F8B8D;fontColor=#143642;" parent="WIyWlLk6GJQsqaUBKTNV-1" vertex="1">
          <mxGeometry x="395" y="1295" width="250" height="230" as="geometry" />
        </mxCell>
        <mxCell id="5Srq73m_eUEjm9wVhy2n-4" style="edgeStyle=orthogonalEdgeStyle;rounded=0;orthogonalLoop=1;jettySize=auto;html=1;exitX=0.5;exitY=1;exitDx=0;exitDy=0;" edge="1" parent="WIyWlLk6GJQsqaUBKTNV-1" source="YYXAiJddzXAb7S0VU3wy-57">
          <mxGeometry relative="1" as="geometry">
            <mxPoint x="-200" y="2312" as="targetPoint" />
          </mxGeometry>
        </mxCell>
        <mxCell id="YYXAiJddzXAb7S0VU3wy-57" value="&lt;font style=&quot;font-size: 18px;&quot;&gt;Print &#39;SecondNumber Is The Minimum Number&lt;/font&gt;" style="rounded=0;whiteSpace=wrap;html=1;labelBackgroundColor=none;fillColor=#FAE5C7;strokeColor=#0F8B8D;fontColor=#143642;" parent="WIyWlLk6GJQsqaUBKTNV-1" vertex="1">
          <mxGeometry x="-720" y="1352" width="390" height="130" as="geometry" />
        </mxCell>
        <mxCell id="YYXAiJddzXAb7S0VU3wy-59" value="&lt;font style=&quot;font-size: 19px;&quot;&gt;Print &#39;ThreeNumber Is The Minimum Number&lt;/font&gt;" style="rounded=0;whiteSpace=wrap;html=1;labelBackgroundColor=none;fillColor=#FAE5C7;strokeColor=#0F8B8D;fontColor=#143642;" parent="WIyWlLk6GJQsqaUBKTNV-1" vertex="1">
          <mxGeometry x="-195" y="1736" width="390" height="130" as="geometry" />
        </mxCell>
        <mxCell id="5Srq73m_eUEjm9wVhy2n-10" style="edgeStyle=orthogonalEdgeStyle;rounded=0;orthogonalLoop=1;jettySize=auto;html=1;exitX=0.5;exitY=1;exitDx=0;exitDy=0;entryX=1;entryY=0;entryDx=0;entryDy=0;" edge="1" parent="WIyWlLk6GJQsqaUBKTNV-1" source="YYXAiJddzXAb7S0VU3wy-60" target="YYXAiJddzXAb7S0VU3wy-61">
          <mxGeometry relative="1" as="geometry" />
        </mxCell>
        <mxCell id="YYXAiJddzXAb7S0VU3wy-60" value="&lt;font style=&quot;font-size: 20px;&quot;&gt;Print &#39;FirstNumber Is The Minimum Number&lt;/font&gt;" style="rounded=0;whiteSpace=wrap;html=1;labelBackgroundColor=none;fillColor=#FAE5C7;strokeColor=#0F8B8D;fontColor=#143642;" parent="WIyWlLk6GJQsqaUBKTNV-1" vertex="1">
          <mxGeometry x="840" y="1753" width="390" height="130" as="geometry" />
        </mxCell>
        <mxCell id="YYXAiJddzXAb7S0VU3wy-61" value="&lt;font style=&quot;font-size: 32px;&quot;&gt;End&lt;/font&gt;" style="ellipse;whiteSpace=wrap;html=1;labelBackgroundColor=none;fillColor=#FAE5C7;strokeColor=#0F8B8D;fontColor=#143642;" parent="WIyWlLk6GJQsqaUBKTNV-1" vertex="1">
          <mxGeometry x="-260" y="2312" width="120" height="80" as="geometry" />
        </mxCell>
      </root>
    </mxGraphModel>
  </diagram>
</mxfile>
